<?xml version="1.0" encoding="UTF-8"?><svg id="_イヤー_2" xmlns="http://www.w3.org/2000/svg" viewBox="0 0 278.08 257.85"><defs><style>.cls-1{stroke:#d29f6b;stroke-width:.4px;}.cls-1,.cls-2{fill:#d29f6b;}.cls-1,.cls-3,.cls-4,.cls-5{stroke-miterlimit:10;}.cls-6{fill:#58aca9;}.cls-3{stroke-width:.89px;}.cls-3,.cls-4,.cls-5{fill:none;stroke:#58aca9;stroke-linecap:round;}.cls-4{stroke-width:1.34px;}.cls-5{stroke-width:.45px;}</style></defs><g id="_イヤー_1-2"><g><path class="cls-6" d="M92.74,51.65c46.54-37.08,114.86-31.46,155.01,12.42,31.85,34.05,39.51,86.77,18.73,128.55-25.97,54.27-91.8,79.57-147.59,56.98-21.72-8.65-40.61-23.94-53.76-43.29-1.24-1.81-.77-4.27,1.03-5.51,1.83-1.26,4.35-.75,5.56,1.11,6.05,9.08,13.41,17.29,21.79,24.3,43.17,36.49,110.85,32.56,149.53-8.8,35.61-35.88,41.02-96.18,12.61-138.03-19.94-30.61-55.18-50.07-91.75-50.41-25.28-.56-50.56,7.88-70.62,23.38-.19,.15-.47,.11-.62-.08-.15-.19-.11-.46,.08-.61h0Z"/><path class="cls-6" d="M41.7,136.64c.14-.93,1.04-1.95,1.52-2.72,6.69-9.5,19.13-28.02,30.05-31.9,2.25-.83,5.09-.43,7.05,1.04,3.17,1.94,5.24,5.84,3.53,9.45-1.4,3.59-5.78,6.29-9.11,3.34-2.62-2.32-3.97-6.14-2.89-9.51,2.27-6.3,8.71-9.67,14.48-11.95,.38-.14,.8,.05,.94,.42,.14,.38-.05,.8-.42,.94-3.75,1.49-7.35,3.53-10.13,6.34-1.97,2.04-3.59,4.61-3.19,7.43,.94,4.85,5.42,7.95,8.03,2.06,1.37-3.04-1.24-5.74-3.9-6.87-6.03-2.18-15.2,9.56-18.79,13.84-3.81,4.78-7.34,9.84-10.72,14.95l-1.68,2.58c-.48,.69-1.1,1.98-1.87,2.45-1.32,.92-3.22-.33-2.92-1.9h0Z"/><path class="cls-6" d="M94.32,80.36c-.15,.3-.46,.52-1.05,.79-.62,.39-1.21,.95-1.78,1.46-2.99,3.1-4.77,7.9-3.5,12.08l-.92-.44c5.16-2.27,7.71-8.5,7.24-13.88h0Zm1.03-2.14c.34,6.65-.04,16.01-7.98,17.68-.37,.05-.71-.14-.87-.45-.45-.88-.63-1.69-.76-2.56-.78-4.38,2.21-8.12,5.13-10.92,1.51-1.33,2.52-2.66,4.49-3.75h0Z"/><path class="cls-6" d="M106.18,101.4c-3.94-3.18-8.11-6.84-13.46-6.66-1.52,.07-3.45,.22-4.56,1.31l.46-1.37c.01,1.64,1.48,3.01,2.61,4.09,4.14,3.53,9.88,3.06,14.94,2.63h0Zm.84,.28c-7.3,2.01-16.4,.68-20.65-6.25-.29-.39-.2-.94,.19-1.23,7.67-3.86,16.04,1.08,20.46,7.48h0Z"/><line class="cls-4" x1="154.25" y1="28.82" x2="154.25" y2="101.46"/><path class="cls-6" d="M149.48,105.32c-1-3.09,2.35-4.35,4.77-4.23,2.41-.13,5.77,1.14,4.77,4.23-.37-1.15-.96-1.94-1.82-2.16-.85-.28-1.89-.28-2.95-.29-2.15,0-4.09-.05-4.77,2.45h0Z"/><path class="cls-6" d="M145.16,108.77c6.38-6.61,18.19-4.81,22.2,3.64,5.77,11.81-6.77,24.35-18.57,18.58-8.45-4.01-10.25-15.84-3.63-22.21h0Zm0,0c-7.73,7.76-1.72,20.87,9.07,20.19,9.6-.48,14.65-12.11,8.38-19.49-4.16-5.22-12.75-5.62-17.45-.7h0Z"/><line class="cls-5" x1="168.13" y1="28.82" x2="168.13" y2="56.16"/><path class="cls-6" d="M165.36,58.7c-.53-1.73,1.4-2.46,2.76-2.38,.95,0,2.42,.21,2.76,1.34,.11,.36,.09,.72,0,1.04-.18-.66-.52-1.15-1.03-1.3-.5-.17-1.12-.19-1.73-.19-1.24-.02-2.43,.03-2.76,1.49h0Z"/><path class="cls-6" d="M162.85,61.07c4.7-4.87,13.45-1.66,13.7,5.25,.35,4.58-3.87,8.8-8.45,8.45-6.92-.25-10.12-9.01-5.25-13.71h0Zm0,0c-2.84,2.69-2.6,7.72,.42,10.08,6.5,5.17,14.84-3.16,9.66-9.67-2.37-3.02-7.4-3.26-10.09-.42h0Z"/><line class="cls-3" x1="183.26" y1="30.34" x2="183.26" y2="88.65"/><path class="cls-6" d="M179.12,91.55c-.77-2.64,2.08-3.67,4.14-3.56,2.06-.11,4.92,.93,4.14,3.57-.27-.99-.77-1.72-1.54-1.95-.76-.26-1.67-.28-2.6-.28-1.86-.02-3.65,.04-4.14,2.23h0Z"/><path class="cls-6" d="M175.36,94.56c7.15-7.25,19.95-2.49,20.39,7.88,.44,6.8-5.7,12.96-12.51,12.51-10.38-.43-15.13-13.24-7.88-20.39h0Zm0,0c-6.74,6.74-1.49,18.22,7.88,17.66,5.19-.23,9.56-4.59,9.78-9.78,.57-9.38-10.93-14.62-17.66-7.88h0Z"/><g><path class="cls-1" d="M87,200.3c.45-1.14,4.66-8.07,10.79-16.47,1.19-1.65,3.47-4.71,4.71-6.36,.74-2.39,.28-4.03,1.02-5.74,.8-1.82,2.33-2.67,5.28-2.9,2.22-3.01,4.49-6.25,6.25-8.35-2.05,.11-5.74,.85-7.33,1.31-5.68,1.59-6.48,4.32-6.48,5.4,0,.34,.11,.85,.17,.97,.11,.28,.17,.4,.06,.45-.06,.06-.23-.11-.34-.28-.28-.45-.51-1.02-.57-1.65-.17-1.65,.45-4.09,6.25-5.62,1.53-.4,5.85-1.08,8.69-1.25,1.31-1.65,4.26-5.17,6.31-7.1,4.43-4.15,8.69-6.82,11.53-6.82,1.76,0,2.5,1.19,2.39,2.5-.17,2.1-2.05,4.6-6.82,7.44-3.69,2.22-7.67,3.41-10.68,4.26-2.1,2.61-4.83,6.19-6.65,8.69,1.25-.06,3.18-.06,4.71-.06,.51,0,1.36,0,1.36,.28,0,.34-.85,.34-1.42,.34-2.39,.06-3.52,.06-5.11,.11-3.41,4.83-6.93,9.54-10.22,14.09-1.31,1.82-3.52,4.89-6.25,8.8-2.1,3.07-4.32,6.19-5.51,7.56-.4,.45-1.25,1.31-1.87,1.31-.51,0-.57-.28-.28-.91Zm16.25-23.74l5.06-6.99c-1.53,.11-3.35,.4-4.26,2.44-.51,1.19-.28,2.67-.85,4.54h.06Zm25.96-21.64c3.64-2.33,5.4-5,5.57-6.82,.11-.97-.4-1.7-1.59-1.7-1.42,0-3.24,.74-6.53,3.86-1.7,1.59-5.17,5.68-7.84,8.98,2.95-.74,6.65-1.99,10.4-4.32Z"/><path class="cls-2" d="M111.76,176.27c.17-1.36,1.31-3.35,4.09-5.4,1.87-1.36,5.11-2.73,6.99-2.39,1.14,.17,1.53,1.19,1.19,2.16,1.36-1.42,2.33-2.16,3.24-2.16,1.19-.06,1.31,.23,.74,.91-.74,.85-1.99,2.27-3.18,3.75-.74,.91-1.48,1.87-1.99,2.78-.4,.68-.4,1.14-.17,1.31,.28,.23,.85,0,1.31-.23,.57-.28,1.65-1.02,2.56-1.76,1.19-.97,2.1-1.76,2.73-2.33,.34-.28,.62-.57,.8-.4s-.11,.45-.74,1.02c-.74,.68-2.1,1.87-3.18,2.73-1.14,.91-3.01,2.27-4.88,2.27-1.08,0-1.59-.51-1.65-1.19-.06-.62,.28-1.42,.8-2.05l-.06-.06c-1.48,1.31-4.09,3.18-6.25,3.29-1.25,.06-2.5-.4-2.33-2.27Zm5.62-3.64c-2.33,2.27-3.29,3.75-3.18,4.49,.06,.4,.34,.57,.74,.57,1.08,0,3.24-1.25,4.77-2.67,1.82-1.59,3.86-4.03,3.92-4.94,.06-.74-.4-1.02-1.02-1.02-1.14,0-3.18,1.53-5.23,3.58Z"/><path class="cls-2" d="M136.02,168.49c1.08,0,1.42,.62,1.42,1.25,0,.68-.45,1.42-1.19,2.44-.85,1.14-2.04,2.67-2.67,3.58l.06,.06c1.36-1.14,3.24-2.78,5.23-4.26,1.99-1.48,4.49-3.07,6.14-3.07,1.42,0,1.99,.68,1.82,1.65-.17,.91-1.25,2.1-2.22,3.24-.97,1.14-1.53,1.82-2.05,2.5l.06,.06c1.31-1.14,3.35-2.9,5.34-4.37,1.99-1.48,4.49-3.07,6.19-3.07,1.25,0,1.87,.62,1.76,1.53-.17,1.02-1.36,2.33-2.27,3.47-.91,1.08-1.53,1.99-1.87,2.5-.45,.68-.45,1.08-.23,1.25,.28,.23,.91,0,1.36-.23,.68-.34,1.48-.8,2.73-1.76,.97-.74,2.1-1.76,2.73-2.33,.34-.28,.57-.51,.74-.34,.11,.11-.06,.34-.45,.74-.51,.51-2.22,2.05-3.41,2.95-1.14,.85-3.35,2.27-5.11,2.27-1.14,0-1.76-.51-1.7-1.48,.06-1.31,1.42-2.78,2.39-3.98l2.39-2.78c.23-.28,.34-.62,.06-.8-.28-.17-.91,.06-1.48,.34-1.02,.51-2.61,1.48-4.43,2.9-2.5,1.93-3.86,3.24-6.36,5.17-.51,.4-.91,.51-1.48,.51-.91,0-1.08-.17-.74-.91,.57-1.19,1.99-3.18,3.01-4.43,.97-1.19,1.99-2.22,2.39-2.78,.23-.28,.28-.68-.06-.8-.34-.11-.8,.06-1.42,.34-1.02,.51-2.73,1.53-4.43,2.9-2.5,1.93-3.86,3.24-6.36,5.17-.51,.4-.85,.51-1.48,.51-.8,0-1.19-.11-.74-.91,.4-.74,1.65-2.61,2.5-3.81,.85-1.19,1.65-2.16,2.27-2.95,.4-.51,.51-.8,.4-.97-.17-.23-.51-.11-.85,.06-.68,.34-1.53,.97-2.22,1.53l-2.44,2.16c-.57,.51-.8,.68-.97,.51-.11-.17,.17-.45,.85-1.08,.68-.62,1.93-1.82,2.95-2.61,1.53-1.19,2.67-1.87,3.86-1.87Z"/><path class="cls-2" d="M160.5,171.78c-.85,.68-1.48,1.19-2.05,1.7-.45,.4-.68,.57-.85,.45-.11-.11,0-.34,.62-.91,.62-.57,2.67-2.27,4.03-3.18,1.48-1.02,2.22-1.25,3.29-1.25,1.19,0,1.31,.17,.62,.91-1.02,1.14-1.93,2.22-3.07,3.64-.97,1.19-1.65,2.22-1.99,2.78-.34,.62-.4,1.02-.17,1.25,.28,.23,.8,.11,1.36-.17,.57-.28,1.53-.91,2.5-1.7,1.19-.97,1.7-1.42,2.61-2.27,.51-.45,.74-.68,.91-.51,.17,.17-.45,.74-.62,.91-.68,.68-2.1,1.93-3.24,2.84-1.14,.91-3.07,2.33-4.94,2.33-1.19,0-1.7-.57-1.7-1.48,0-.74,.4-1.48,.85-2.16,1.14-1.76,3.35-4.09,4.26-4.89-.4,.17-1.59,1.02-2.44,1.7Zm10.79-9.37c-.68,.91-2.1,1.53-2.67,1.53-.28-.34-.34-1.19-.06-1.93,.34-.85,1.19-1.08,2.27-1.08,.8,0,1.14,.62,.45,1.48Z"/><path class="cls-1" d="M170.16,171.21c-.85,.74-1.7,1.53-2.33,2.1-.34,.28-.51,.34-.62,.17-.06-.17,.11-.34,.28-.51,.23-.23,2.1-1.87,3.81-3.29,.62-.91,2.95-3.81,4.32-5.51,3.07-3.75,5.57-6.02,9.54-9.15,3.29-2.5,7.95-5.62,12.5-5.62s7.33,2.9,6.99,6.02c-.06,.74-.4,1.25-.57,1.19-.11-.06,.11-.45,.17-1.19,.17-2.44-2.5-4.54-6.76-4.54-5.51,0-8.69,1.99-11.7,4.71-2.39,2.22-5.96,6.36-9.6,11.3-2.5,3.41-4.6,6.42-5.74,8.69-.17,.4-.51,1.19-.11,1.53,.4,.28,1.25-.06,1.76-.34,.74-.4,1.53-.97,2.33-1.59,1.02-.8,1.76-1.42,2.5-2.1,.23-.23,.68-.62,.85-.45,.11,.11-.06,.34-.4,.68-.68,.68-2.1,1.93-3.47,2.95-1.14,.85-3.24,2.27-5.11,2.27-1.14,0-1.82-.51-1.76-1.53,.06-1.36,1.48-3.58,3.18-5.74l-.06-.06Z"/><path class="cls-2" d="M179.24,171.78c-.85,.68-1.48,1.19-2.05,1.7-.45,.4-.68,.57-.85,.45-.11-.11,0-.34,.62-.91,.62-.57,2.67-2.27,4.03-3.18,1.48-1.02,2.22-1.25,3.29-1.25,1.19,0,1.31,.17,.62,.91-1.02,1.14-1.93,2.22-3.07,3.64-.97,1.19-1.65,2.22-1.99,2.78-.34,.62-.4,1.02-.17,1.25,.28,.23,.8,.11,1.36-.17,.57-.28,1.53-.91,2.5-1.7,1.19-.97,1.7-1.42,2.61-2.27,.51-.45,.74-.68,.91-.51s-.45,.74-.62,.91c-.68,.68-2.1,1.93-3.24,2.84-1.14,.91-3.07,2.33-4.94,2.33-1.19,0-1.7-.57-1.7-1.48,0-.74,.4-1.48,.85-2.16,1.14-1.76,3.35-4.09,4.26-4.89-.4,.17-1.59,1.02-2.44,1.7Zm10.79-9.37c-.68,.91-2.1,1.53-2.67,1.53-.28-.34-.34-1.19-.06-1.93,.34-.85,1.19-1.08,2.27-1.08,.8,0,1.14,.62,.45,1.48Z"/><path class="cls-2" d="M200.6,168.49c1.19-.06,1.31,.23,.74,.91-.74,.85-1.99,2.27-3.18,3.75-.74,.91-1.48,1.87-1.99,2.78-.4,.68-.4,1.14-.17,1.31,.28,.23,.85,0,1.31-.23,.57-.28,1.65-1.02,2.56-1.76,1.19-.97,2.1-1.76,2.73-2.33,.34-.28,.62-.57,.8-.4s-.11,.45-.74,1.02c-.74,.68-2.1,1.87-3.18,2.73-1.14,.91-3.01,2.27-4.89,2.27-1.08,0-1.59-.51-1.65-1.19-.06-.62,.28-1.42,.8-2.05l-.06-.06c-1.48,1.31-4.09,3.18-6.25,3.29-1.25,.06-2.56-.45-2.33-2.27,.11-.85,.57-1.76,1.59-2.95l-.06-.06-.74,.68c-.23,.17-.4,.28-.51,.17-.11-.17,.17-.51,.8-1.08,.17-.17,1.14-.97,1.7-1.36,.57-.4,1.53-1.02,2.61-1.59,2.22-1.14,4.2-1.82,5.68-1.59,1.14,.17,1.53,1.19,1.19,2.16,1.36-1.42,2.33-2.16,3.24-2.16Zm-9.88,4.15c-2.33,2.27-3.29,3.75-3.18,4.49,.06,.4,.34,.57,.74,.57,1.08,0,3.24-1.25,4.77-2.67,1.82-1.59,3.86-4.03,3.92-4.94,.06-.74-.4-1.02-1.02-1.02-1.14,0-3.18,1.53-5.23,3.58Z"/><path class="cls-2" d="M207.42,176.44c-.23,.45-.34,.97-.17,1.42,.17,.4,.57,.68,1.31,.8,1.36,.17,3.52-.17,5.34-.62,2.16-.57,4.15-1.65,5.57-2.78,1.08-.85,2.22-2.33,2.33-3.86,.11-1.99-1.08-2.67-2.44-2.61-2.05,.11-3.24,1.14-3.69,1.59-.11,.11-.28,.28-.4,.23-.11-.11,0-.23,.17-.45,.4-.45,1.76-1.76,3.92-1.87,1.82-.11,3.86,.74,3.69,3.12-.11,1.76-1.59,3.18-2.95,4.26-1.65,1.31-3.75,2.22-6.08,2.84-2.05,.57-4.54,.91-6.76,.68-1.53-.17-2.61-.62-2.67-1.93,0-1.42,.74-2.61,2.1-3.92,.97-.97,3.86-3.12,4.03-3.52,.23-.62-.85-.45-2.27-.45-.57,0-1.02,0-1.31-.11-.45,.51-1.25,1.31-2.16,2.16-.97,.91-1.65,1.53-2.27,2.1-.51,.45-.74,.57-.85,.45-.11-.11,.06-.4,.62-.91,.68-.62,1.19-1.08,2.22-2.05,.8-.74,1.53-1.48,1.99-1.99-.51-.34-.57-1.14,0-1.82,.45-.57,1.25-.97,2.16-.97,.45,0,.97,.23,1.02,.57-.4,.28-.62,.45-.97,.8-.74,.8-.57,1.19,.17,1.25,1.59,.06,3.24,.11,3.24,1.14,0,.8-1.48,2.16-2.61,3.47-.97,1.08-1.87,2.22-2.27,3.01Z"/></g><g><path class="cls-1" d="M130.05,202.93c1.42,0,2.22,.8,2.22,1.87,0,.74-.34,1.31-1.02,1.87-.51,.51-1.02,.85-1.14,1.53-.11,1.08,1.02,1.87,3.86,1.87,4.6,0,10.79-2.56,15.96-6.53,5.17-3.92,9.43-8.63,12.33-14.14,.23-.45,.74-1.31,1.08-1.82,.51-.68,1.42-1.7,2.27-1.76,.68-.06,.85,.28,.57,.74-.57,.8-1.08,1.99-1.36,3.18-.4,1.76-.51,4.32-.74,6.93-.34,4.37-.91,6.93-1.59,8.58h.06c3.64-5.28,8.75-11.93,12.55-15.96,3.81-4.03,7.61-6.99,11.08-6.99,2.39,0,3.46,1.7,3.52,3.18,0,.28,0,.57-.17,.57-.11,0-.17-.34-.28-.57-.34-.91-1.48-1.53-3.24-1.53-3.98,0-7.72,3.01-10.45,5.85-5.34,5.57-11.02,13.58-14.94,19.26-.4,.51-.85,1.25-1.42,.91-.51-.28-.34-.97-.11-1.53,1.08-3.01,1.59-5.51,1.87-9.09,.34-3.64,.34-6.36,.97-8.07h-.06c-2.27,4.37-7.16,9.43-11.59,12.78-5.45,4.09-11.53,6.65-16.36,6.76-3.35,.06-7.04-.97-7.04-4.37,0-1.93,1.59-3.52,3.18-3.52Z"/><path class="cls-2" d="M167.37,207.25c.17-1.36,1.31-3.35,4.09-5.4,1.87-1.36,5.11-2.73,6.99-2.39,1.14,.17,1.53,1.19,1.19,2.16,1.36-1.42,2.33-2.16,3.24-2.16,1.19-.06,1.31,.23,.74,.91-.74,.85-1.99,2.27-3.18,3.75-.74,.91-1.48,1.87-1.99,2.78-.4,.68-.4,1.14-.17,1.31,.28,.23,.85,0,1.31-.23,.57-.28,1.65-1.02,2.56-1.76,1.19-.97,2.1-1.76,2.73-2.33,.34-.28,.62-.57,.8-.4,.17,.17-.11,.45-.74,1.02-.74,.68-2.1,1.87-3.18,2.73-1.14,.91-3.01,2.27-4.89,2.27-1.08,0-1.59-.51-1.65-1.19-.06-.62,.28-1.42,.8-2.05l-.06-.06c-1.48,1.31-4.09,3.18-6.25,3.29-1.25,.06-2.5-.4-2.33-2.27Zm5.62-3.64c-2.33,2.27-3.29,3.75-3.18,4.49,.06,.4,.34,.57,.74,.57,1.08,0,3.24-1.25,4.77-2.67,1.82-1.59,3.86-4.03,3.92-4.94,.06-.74-.4-1.02-1.02-1.02-1.14,0-3.18,1.53-5.23,3.58Z"/><path class="cls-2" d="M185.09,204.35c-.4,.34-.57,.4-.68,.28-.11-.11,0-.34,.4-.68l4.15-3.69c-.74,0-1.36,.06-2.05,.06-.4,0-.68,0-.62-.28,.06-.23,.62-.28,1.53-.34,.74-.06,1.36-.06,1.59-.06,1.76-2.16,4.03-4.66,5.34-5.91,1.02-1.02,2.39-2.33,3.58-2.33,.57,0,.8,.17,.85,.34-.68,.62-2.16,2.22-3.47,3.69-1.31,1.48-2.33,2.73-3.47,4.2,1.31-.06,2.33-.06,3.24-.06,.45,0,.85,.06,.8,.34-.06,.34-.57,.28-1.02,.28-1.25,0-2.16,0-3.47,.06-1.14,1.36-3.07,4.26-4.09,6.25-.34,.62-.51,1.42-.06,1.65,.34,.17,.97,0,1.42-.23,.68-.34,1.65-.97,2.56-1.7,1.02-.8,1.99-1.65,2.67-2.27,.28-.23,.62-.57,.8-.4,.11,.11,0,.28-.4,.68-.62,.62-2.27,2.1-3.47,3.01-1.02,.8-3.07,2.33-5.23,2.33-1.31,0-1.76-.74-1.7-1.59,.11-1.42,1.42-3.46,3.07-5.62-.91,.74-1.59,1.36-2.27,1.99Z"/><path class="cls-2" d="M196.51,202.76c-.85,.68-1.48,1.19-2.05,1.7-.45,.4-.68,.57-.85,.45-.11-.11,0-.34,.62-.91,.62-.57,2.67-2.27,4.03-3.18,1.48-1.02,2.22-1.25,3.29-1.25,1.19,0,1.31,.17,.62,.91-.74,.8-1.82,2.1-2.95,3.52-.91,1.19-1.82,2.44-2.1,3.07-.23,.45-.23,.85-.06,1.02,.23,.23,.74,.17,1.31-.11,1.25-.68,2.5-1.59,4.26-2.95,2.73-2.1,4.32-3.52,6.14-4.94,.45-.34,.8-.62,1.65-.62,.97,0,1.53,.11,.85,.91-1.02,1.25-1.87,2.16-3.01,3.64-.97,1.19-1.7,2.22-2.1,2.9-.34,.57-.4,1.08-.17,1.25,.28,.23,.74,.11,1.31-.17,.57-.28,1.65-.97,2.56-1.7,1.14-.91,2.1-1.76,2.73-2.33,.34-.34,.68-.57,.8-.4,.17,.11-.28,.57-.45,.74-.68,.68-2.1,1.87-3.47,2.95-1.02,.8-3.01,2.27-4.89,2.27-1.14,0-1.76-.51-1.76-1.36,0-.8,.4-1.59,.91-2.33,.62-.91,1.7-1.99,2.67-2.95l-.06-.06-4.54,3.58c-2.33,1.76-4.37,3.12-6.08,3.12-1.19,0-1.93-.57-1.87-1.59,.06-.8,.57-1.65,1.08-2.33,1.14-1.53,2.27-2.9,4.03-4.54-.4,.17-1.59,1.02-2.44,1.7Z"/><path class="cls-2" d="M238.72,204.01c.34-.28,.51-.34,.62-.23,.11,.17-.06,.4-.45,.74-.74,.68-2.33,2.04-3.35,2.73-2.39,1.59-4.66,2.44-6.59,2.44-2.1,0-3.12-.91-3.12-2.33,0-.62,.28-1.53,.8-2.39-.4-.06-.97-.17-1.53-.45-1.14-.57-1.76-1.7-1.7-2.73-.62,.34-1.7,1.19-2.39,1.76-1.65,1.42-3.52,3.18-5.74,5.34-.4,.4-.85,.51-1.48,.51-.8,0-1.19-.11-.74-.91,.4-.74,1.59-2.61,2.5-3.81,.62-.85,1.65-2.16,2.27-2.95,.4-.51,.51-.8,.4-.97-.17-.23-.51-.11-.85,.06-.68,.34-1.53,.97-2.22,1.53-.74,.62-1.65,1.42-2.44,2.16-.57,.51-.8,.68-.97,.51-.11-.17,.17-.45,.85-1.08,.68-.62,1.93-1.82,2.95-2.61,1.53-1.19,2.67-1.87,3.86-1.87,1.08,0,1.42,.62,1.42,1.25,0,.74-.62,1.65-1.19,2.44-.45,.62-1.25,1.65-1.7,2.27l.11,.11c.62-.62,2.16-2.1,3.47-3.18,.91-.74,1.82-1.48,2.78-2.1,.85-.57,1.42-.74,1.7-.8,.51-.11,1.02-.06,1.25,.06,.17,.11,.4,.57-.23,.91-1.65,.91-2.1,1.53-2.16,2.05-.06,.57,.06,1.19,.85,1.59,.34,.17,.97,.34,1.25,.34,.74-.97,2.22-2.39,3.98-3.35,1.65-.91,3.52-1.65,5.06-1.65,1.19,0,1.76,.8,1.7,1.53-.11,1.48-1.87,2.78-3.64,3.47-1.82,.68-3.52,.85-4.54,.85-.68,.97-.74,1.82-.74,2.22,0,.8,.45,1.31,1.31,1.31,1.25,0,2.9-.57,5.17-2.04,1.08-.74,2.56-1.93,3.47-2.73Zm-5.34-.11c1.87-.97,2.33-2.22,2.33-3.01,0-.4-.17-.68-.68-.68s-1.36,.51-2.5,1.53c-1.02,.97-2.16,2.22-2.67,2.9,.62,.06,2.27-.11,3.52-.74Z"/></g><path class="cls-6" d="M108.84,6.86c-38.66,38.37-62.54,90.94-63.68,145.4-.61,15.87,.86,31.84,3.93,47.41,.75,4.04,1.83,7.82,2.69,11.83,.88,5.98,.8,12.23-1.79,17.83-4.31,9.73-15.41,14.61-25.61,14.02-13.68-.46-25.14-12.71-24.34-26.34,.36,12.84,11.67,23.95,24.41,23.62,12.6,.13,23.85-8.37,23.48-21.52,.13-6.34-2.4-12.29-3.59-18.42-1.42-6.36-2.53-12.79-3.34-19.27C32.89,116.23,58.28,48.99,108.84,6.86h0Z"/><path class="cls-6" d="M117.04,8.89c-2.04-1.09-5.99-4.22-8-1.81,.91,2.74,5.4,1.98,8,1.81h0Zm.35,.08c-2.44,.75-8.6,1.52-8.88-2.15,2.17-2.9,6.94,.37,8.88,2.15h0Z"/><path class="cls-6" d="M105.51,.33c.4,1.97,.36,6.28,3.07,6.38,1.3-2.09-1.56-4.65-3.07-6.38h0Zm-.15-.33c1.87,1.23,5.77,5.12,3.35,7.28-3.18,.1-3.56-4.98-3.35-7.28h0Z"/><path class="cls-6" d="M95.77,4.99c.49,3.32,.72,9.06,4.38,9.51,2.48-3.08-2.49-7.31-4.38-9.51h0Zm-.19-.4c2.72,1.92,8.12,7.09,5.05,10.53-4.64,.68-5.36-7.32-5.05-10.53h0Z"/><path class="cls-6" d="M83.46,11.76c.45,1.39,.59,2.45,.82,3.82,.67,3.17,1.53,7.11,4.59,8.71,.46,.2,1.16,.32,1.6,.21l-.31,.16c2.5-3.28-1.66-7.78-3.99-10.1-1.01-.95-1.81-1.65-2.72-2.8h0Zm-.44-.82c4.11,2.18,12.54,9.97,8.18,14.92-1.89,.81-3.85-.55-4.88-1.72-2.22-2.7-2.82-6.15-3.27-9.48-.2-1.19-.11-2.62-.03-3.72h0Z"/><path class="cls-6" d="M69.03,21.01c.62,1.32,1.04,2.21,1.37,3.49,.68,2.25,1.52,4.55,2.61,6.6,1.55,2.76,4.02,6.27,7.52,5.42l-.42,.31s.16-.22,.23-.36c1.97-4.83-3.83-9.53-7.27-12.21-1.57-1.14-2.59-1.79-4.04-3.25h0Zm-.8-1.11c1.38,.53,3.22,1.27,4.54,2.22,4.89,3.17,13.3,9.6,9.12,16.29-2.39,1.51-5.39-.04-6.96-1.41-3.45-3.23-4.84-7.72-6.03-12.08-.48-1.56-.61-3.53-.67-5.01h0Z"/><path class="cls-6" d="M54.84,33.94c1.53,3.21,2.13,6.38,3.54,9.57,1.85,4.27,5.45,11.16,10.93,9.9l-.56,.41s.19-.26,.28-.42c2.17-4.98-2.75-9.9-6.22-13.08-2.58-2.35-5.39-3.92-7.96-6.38h0Zm-.84-1.17c1.69,.69,3.92,1.6,5.56,2.75,6.17,3.91,16.81,12,11.55,20.4-.14,.2-.35,.34-.57,.41-3.4,1.05-6.22-.45-8.25-2.21-4.3-4.09-6-9.69-7.45-15.2-.57-1.92-.73-4.33-.85-6.15h0Z"/><path class="cls-6" d="M39.33,48.64c2.19,5.79,3.56,11.59,6.58,16.97,2.22,3.79,4.82,7.53,9.07,8.77,1.11,.24,2.3,.32,3.38-.08,0,0-.73,.52-.7,.51,.02-.03,.13-.17,.16-.21,3.55-6.16-3.34-13.61-7.79-17.58-3.41-3.1-7.1-5.39-10.69-8.38h0Zm-.71-.98c2.1,.99,4.81,2.14,6.88,3.54,6.2,3.98,12.41,8.33,15.71,15.25,1.35,3.19,2.05,7.26-.59,10.98-.18,.25-.43,.43-.71,.51-11.56,2.84-17.24-11.69-19.51-20.31-.18-.76-.72-2.76-.89-3.5-.45-2.1-.67-4.55-.89-6.48h0Z"/><path class="cls-6" d="M103.74,28.14c-1.12-.44-1.97-.94-2.97-1.51-2.55-1.26-6.14-3.15-8.7-1.19-.15,.14-.33,.38-.36,.47l.07-.34c.41,2.21,3.08,2.74,5.05,2.91,2.33,.21,4.54-.36,6.9-.35h0Zm.74,.15c-.86,.33-2.01,.76-3.01,.9-2.82,.48-5.76,.87-8.54-.25-1.22-.54-2.91-1.86-2.67-3.67,3.07-4.84,11.36,.16,14.22,3.01h0Z"/><path class="cls-6" d="M99.17,41.13c-3.11-1.15-5.73-3-8.89-3.89-2.62-.72-5.99-1.35-7.85,.97-.08,.11-.18,.29-.17,.3l.09-.51c.67,3.07,4.38,3.67,7.15,3.86,3.28,.21,6.36-.67,9.68-.72h0Zm1.09,.19c-1.2,.51-2.8,1.18-4.22,1.42-3.96,.8-8.09,1.48-12.05,0-1.71-.69-4.28-2.58-3.94-5.14,4.06-6.99,16.14-.24,20.21,3.71h0Z"/><path class="cls-6" d="M95.56,56.53c-3.39-.87-6.2-2.36-9.51-3.27-4.45-1.2-11.13-2.69-14.1,1.73-.09,.16-.2,.43-.2,.45l.04-.69c1.82,5.2,9.42,4.58,13.94,3.89,3.4-.5,6.36-1.65,9.84-2.1h0Zm1.34,.08c-1.58,.84-3.64,1.96-5.52,2.5-6.77,2.3-19.63,5.36-22.73-3.86-.07-.24-.04-.48,.04-.7,1.32-3.25,4.23-4.47,6.84-4.91,5.79-.72,11.1,1.48,16.19,3.81,1.8,.76,3.72,2.12,5.18,3.15h0Z"/><path class="cls-6" d="M95.14,75.08c-6.35-1.62-12.37-3.68-18.89-4.15-5.44-.28-12.63,.04-14.9,5.75l-.05,.19-.02,.09s0,.01,0,.01l-.04-.87c.37,1.18,1.23,2.13,2.17,2.91,3.82,2.73,8.65,2.45,13.25,1.82,6.45-1.03,12.27-3.59,18.46-5.76h0Zm.93-.04c-1.75,1.01-3.85,2.34-5.83,3.33-2.64,1.19-5.44,2.49-8.18,3.4-7.8,2.74-20.28,5.12-24.63-4.63-.11-.29-.12-.59-.04-.87,1.35-4.54,5.13-6.61,8.63-7.55,8.27-1.85,16.29,.81,23.96,3.5,2.05,.81,4.27,1.96,6.1,2.82h0Z"/><path class="cls-6" d="M107.89,17.58c-1.74-1.2-5.1-4.43-7.16-2.48l.06-.16c.34,2.81,4.98,2.47,7.1,2.65h0Zm.27,.1c-2.48,.42-7.91,.65-8.15-2.84,2.09-2.91,6.61,.97,8.15,2.84h0Z"/></g></g></svg>